<?xml version="1.0" standalone="no"?>
<!DOCTYPE svg PUBLIC "-//W3C//DTD SVG 20010904//EN"
 "http://www.w3.org/TR/2001/REC-SVG-20010904/DTD/svg10.dtd">
<svg version="1.0" xmlns="http://www.w3.org/2000/svg"
 width="333.000000pt" height="333.000000pt" viewBox="0 0 333.000000 333.000000"
 preserveAspectRatio="xMidYMid meet">
<metadata>
Created by potrace 1.11, written by Peter Selinger 2001-2013
</metadata>
<g transform="translate(0.000000,333.000000) scale(0.100000,-0.100000)"
fill="#000000" stroke="none">
<path d="M553 2935 c-190 -52 -347 -219 -389 -413 -21 -99 -20 -1685 1 -1785
40 -192 213 -371 399 -412 62 -14 178 -15 941 -13 l870 3 60 22 c173 66 314
227 350 400 10 49 14 155 15 395 l0 328 -24 25 c-14 14 -33 25 -42 25 -10 0
-55 -37 -101 -83 l-83 -83 0 -281 0 -280 -30 -61 c-35 -68 -82 -115 -149 -146
-46 -21 -53 -21 -896 -21 l-850 0 -57 28 c-66 32 -112 80 -145 153 l-23 52 2
853 3 854 25 48 c29 58 86 112 149 141 46 21 49 21 886 21 462 0 855 -4 873
-8 30 -8 36 -5 102 59 74 71 84 96 53 132 -10 11 -40 29 -68 39 -47 17 -107
18 -935 20 -738 2 -894 0 -937 -12z"/>
<path d="M2855 2816 c-16 -8 -304 -289 -640 -625 -335 -336 -614 -611 -620
-611 -6 0 -125 115 -265 255 -344 345 -327 341 -543 127 -151 -149 -165 -175
-146 -247 9 -34 77 -106 447 -477 388 -388 441 -437 475 -444 85 -15 58 -39
908 813 667 668 798 804 803 832 12 69 -6 98 -146 238 -158 156 -194 175 -273
139z"/>
</g>
</svg>
